<svg width="5.000000" height="4.166748" viewBox="0 0 5 4.16675" fill="none" xmlns="http://www.w3.org/2000/svg" xmlns:xlink="http://www.w3.org/1999/xlink">
	<desc>
			Created with Pixso.
	</desc>
	<defs/>
	<path id="Arrow - Down 2" d="M2.02 4.01C2 3.98 1.9 3.9 1.81 3.81C1.28 3.33 0.4 2.06 0.13 1.4C0.09 1.3 0 1.04 0 0.91C0 0.78 0.03 0.65 0.09 0.53C0.17 0.39 0.3 0.27 0.46 0.2C0.57 0.16 0.9 0.1 0.91 0.1C1.26 0.03 1.85 0 2.49 0C3.11 0 3.66 0.03 4.03 0.08C4.04 0.09 4.44 0.15 4.58 0.23C4.84 0.36 5 0.61 5 0.88L5 0.91C4.99 1.08 4.83 1.46 4.82 1.46C4.56 2.08 3.73 3.32 3.17 3.82C3.17 3.82 3.03 3.96 2.94 4.02C2.81 4.11 2.66 4.16 2.5 4.16C2.32 4.16 2.16 4.11 2.02 4.01Z" fill="#FFFFFF" fill-opacity="1.000000" fill-rule="nonzero"/>
</svg>
