<svg width="20.000000" height="20.000000" viewBox="0 0 20 20" fill="none" xmlns="http://www.w3.org/2000/svg" xmlns:xlink="http://www.w3.org/1999/xlink">
	<defs/>
	<path id="Call" d="M16.16 12.37C15.49 12.23 14.96 12.54 14.49 12.81C14.01 13.09 13.09 13.84 12.56 13.65C9.88 12.54 7.35 10.19 6.25 7.49C6.06 6.95 6.8 6.03 7.08 5.54C7.35 5.07 7.65 4.53 7.51 3.86C7.39 3.25 5.76 1.18 5.18 0.61C4.8 0.24 4.42 0.03 4.02 0C2.52 -0.07 0.84 1.94 0.54 2.41C-0.19 3.44 -0.19 4.8 0.56 6.44C2.35 10.87 9.14 17.56 13.59 19.42C14.41 19.8 15.16 20 15.83 20C16.49 20 17.08 19.81 17.58 19.45C17.96 19.23 20.05 17.47 19.99 15.93C19.96 15.53 19.76 15.14 19.39 14.76C18.82 14.18 16.77 12.5 16.16 12.37Z" fill="#FFFFFF" fill-opacity="1.000000" fill-rule="nonzero"/>
</svg>
